<?xml version="1.0" encoding="UTF-8" standalone="no"?>
<svg
   xmlns:dc="http://purl.org/dc/elements/1.1/"
   xmlns:cc="http://creativecommons.org/ns#"
   xmlns:rdf="http://www.w3.org/1999/02/22-rdf-syntax-ns#"
   xmlns:svg="http://www.w3.org/2000/svg"
   xmlns="http://www.w3.org/2000/svg"
   xmlns:sodipodi="http://sodipodi.sourceforge.net/DTD/sodipodi-0.dtd"
   xmlns:inkscape="http://www.inkscape.org/namespaces/inkscape"
   width="250"
   height="200"
   viewBox="0 0 66.145831 52.916667"
   version="1.1"
   id="svg16"
   sodipodi:docname="formModLogo.svg"
   inkscape:version="1.0.1 (c497b03c, 2020-09-10)">
  <defs
     id="defs10" />
  <sodipodi:namedview
     id="base"
     pagecolor="#909090"
     bordercolor="#666666"
     borderopacity="1.0"
     inkscape:pageopacity="0.7254902"
     inkscape:pageshadow="2"
     inkscape:zoom="1.4"
     inkscape:cx="87.158357"
     inkscape:cy="95.075623"
     inkscape:document-units="mm"
     inkscape:current-layer="layer2"
     inkscape:document-rotation="0"
     showgrid="false"
     units="px"
     inkscape:showpageshadow="false"
     showborder="true"
     inkscape:snap-page="true"
     inkscape:window-width="1328"
     inkscape:window-height="979"
     inkscape:window-x="620"
     inkscape:window-y="31"
     inkscape:window-maximized="0" />
  <metadata
     id="metadata13">
    <rdf:RDF>
      <cc:Work
         rdf:about="">
        <dc:format>image/svg+xml</dc:format>
        <dc:type
           rdf:resource="http://purl.org/dc/dcmitype/StillImage" />
        <dc:title></dc:title>
      </cc:Work>
    </rdf:RDF>
  </metadata>
  <g
     inkscape:groupmode="layer"
     id="layer2"
     inkscape:label="Layer 2">
    <rect
       style="fill:none;stroke-width:0.264583"
       id="rect23"
       width="47.841244"
       height="37.952274"
       x="24.321527"
       y="2.6726952" />
    <path
       style="fill:none;stroke-width:1.01015"
       d="M 91.640411,9.7596613 C 91.060624,57.398739 91.557825,105.21571 91.391819,152.92314 c 4.45381,2.85616 11.833621,0.3597 17.362001,1.19955 54.54823,0 109.09647,0 163.64471,0 2.85616,-4.45381 0.3597,-11.83361 1.19955,-17.36199 0,-42.089694 0,-84.179383 0,-126.269073 -4.45381,-2.8561671 -11.83361,-0.3597 -17.36199,-1.1995558 -54.54824,0 -109.09648,0 -163.644715,0 l -0.906497,0.4457257 z"
       id="path25"
       transform="scale(0.26458333)" />
    <path
       style="fill:none;stroke-width:1.01015"
       d="M 91.640411,9.7596613 C 91.060624,57.398739 91.557825,105.21571 91.391819,152.92314 c 4.45381,2.85616 11.833621,0.3597 17.362001,1.19955 54.54823,0 109.09647,0 163.64471,0 2.85616,-4.45381 0.3597,-11.83361 1.19955,-17.36199 0,-42.089694 0,-84.179383 0,-126.269073 -4.45381,-2.8561671 -11.83361,-0.3597 -17.36199,-1.1995558 -54.54824,0 -109.09648,0 -163.644715,0 l -0.906497,0.4457257 z"
       id="path27"
       transform="scale(0.26458333)" />
    <path
       style="fill:none;stroke-width:1.01015"
       d="M 91.640411,9.7596613 C 91.060624,57.398739 91.557825,105.21571 91.391819,152.92314 c 4.45381,2.85616 11.833621,0.3597 17.362001,1.19955 54.54823,0 109.09647,0 163.64471,0 2.85616,-4.45381 0.3597,-11.83361 1.19955,-17.36199 0,-42.089694 0,-84.179383 0,-126.269073 -4.45381,-2.8561671 -11.83361,-0.3597 -17.36199,-1.1995558 -54.54824,0 -109.09648,0 -163.644715,0 l -0.906497,0.4457257 z"
       id="path29"
       transform="scale(0.26458333)" />
    <path
       style="fill:none;stroke-width:1.01015"
       d="M 91.640411,9.7596613 C 91.060624,57.398739 91.557825,105.21571 91.391819,152.92314 c 4.45381,2.85616 11.833621,0.3597 17.362001,1.19955 54.54823,0 109.09647,0 163.64471,0 2.85616,-4.45381 0.3597,-11.83361 1.19955,-17.36199 0,-42.089694 0,-84.179383 0,-126.269073 -4.45381,-2.8561671 -11.83361,-0.3597 -17.36199,-1.1995558 -54.54824,0 -109.09648,0 -163.644715,0 l -0.906497,0.4457257 z"
       id="path31"
       transform="scale(0.26458333)" />
    <path
       style="fill:none;stroke-width:1.01015"
       d="M 91.640411,9.7596613 C 91.060624,57.398739 91.557825,105.21571 91.391819,152.92314 c 4.45381,2.85616 11.833621,0.3597 17.362001,1.19955 54.54823,0 109.09647,0 163.64471,0 2.85616,-4.45381 0.3597,-11.83361 1.19955,-17.36199 0,-42.089694 0,-84.179383 0,-126.269073 -4.45381,-2.8561671 -11.83361,-0.3597 -17.36199,-1.1995558 -54.54824,0 -109.09648,0 -163.644715,0 l -0.906497,0.4457257 z"
       id="path33"
       transform="scale(0.26458333)" />
    <path
       style="fill:none;stroke:#000000;stroke-width:0.911624;stroke-linecap:round;stroke-linejoin:round;stroke-miterlimit:4;stroke-dasharray:none;stroke-opacity:1"
       d="m 20.308651,10.926196 c -0.112521,10.160715 -0.01603,20.359375 -0.04824,30.53467 0.864367,0.609177 2.296593,0.07672 3.369505,0.255846 10.586367,0 21.172736,0 31.759105,0 0.554306,-0.949932 0.06981,-2.523935 0.232802,-3.703058 0,-8.977114 0,-17.954228 0,-26.931342 -0.864367,-0.609178 -2.296591,-0.07672 -3.369503,-0.255847 -10.586369,0 -21.172739,0 -31.759108,0 l -0.175926,0.09507 z"
       id="path35" />
  </g>
  <g
     inkscape:label="Layer 1"
     inkscape:groupmode="layer"
     id="layer1">
    <text
       xml:space="preserve"
       style="font-size:11.2889px;line-height:1.25;font-family:sans-serif;stroke-width:0.264583;stroke-miterlimit:4;stroke-dasharray:none"
       x="2.4054265"
       y="30.201458"
       id="text20"><tspan
         sodipodi:role="line"
         id="tspan18"
         x="2.4054265"
         y="30.201458"
         style="font-style:normal;font-variant:normal;font-weight:normal;font-stretch:normal;font-size:11.2889px;font-family:Helvetica;-inkscape-font-specification:Helvetica;fill:#ffffff;stroke-width:0.264583;stroke-miterlimit:4;stroke-dasharray:none"
         dy="0"
         rotate="0 0 0 0 0 0 0 0 0"><tspan
   style="fill:#000000;fill-opacity:1"
   id="tspan894">for</tspan><tspan
   style="fill:#000000;fill-opacity:1;stroke-width:0.264583;stroke-miterlimit:4;stroke-dasharray:none"
   id="tspan874">m</tspan><tspan
   style="fill:#008000;fill-opacity:1"
   id="tspan965">MOD</tspan> </tspan></text>
  </g>
</svg>
